<mxfile host="app.diagrams.net" modified="2023-12-26T10:19:48.684Z" agent="Mozilla/5.0 (Windows NT 10.0; WOW64) AppleWebKit/537.36 (KHTML, like Gecko) Chrome/80.0.3987.87 Safari/537.36 SE 2.X MetaSr 1.0" etag="VoDLSbI1jSr7kQVPmfQv" version="22.1.11" type="github">
  <diagram name="第 1 页" id="tpBSywvEzWgStF-gSTxe">
    <mxGraphModel dx="1134" dy="1859" grid="1" gridSize="10" guides="1" tooltips="1" connect="1" arrows="1" fold="1" page="1" pageScale="1" pageWidth="827" pageHeight="1169" math="0" shadow="0">
      <root>
        <mxCell id="0" />
        <mxCell id="1" parent="0" />
        <mxCell id="RUQEUfg2NOJvjZdRJj3k-48" value="被贪婪攻击" style="edgeStyle=orthogonalEdgeStyle;rounded=0;orthogonalLoop=1;jettySize=auto;html=1;exitX=0.75;exitY=0;exitDx=0;exitDy=0;entryX=0.75;entryY=1;entryDx=0;entryDy=0;" parent="1" source="RUQEUfg2NOJvjZdRJj3k-46" target="RUQEUfg2NOJvjZdRJj3k-26" edge="1">
          <mxGeometry relative="1" as="geometry" />
        </mxCell>
        <mxCell id="RUQEUfg2NOJvjZdRJj3k-46" value="" style="rounded=0;whiteSpace=wrap;html=1;" parent="1" vertex="1">
          <mxGeometry x="640" y="440" width="310" height="150" as="geometry" />
        </mxCell>
        <mxCell id="RUQEUfg2NOJvjZdRJj3k-43" value="" style="rounded=0;whiteSpace=wrap;html=1;" parent="1" vertex="1">
          <mxGeometry x="1050" y="120" width="310" height="290" as="geometry" />
        </mxCell>
        <mxCell id="RUQEUfg2NOJvjZdRJj3k-45" value="被贪婪攻击" style="edgeStyle=orthogonalEdgeStyle;rounded=0;orthogonalLoop=1;jettySize=auto;html=1;exitX=0.75;exitY=1;exitDx=0;exitDy=0;entryX=0.75;entryY=0;entryDx=0;entryDy=0;" parent="1" source="RUQEUfg2NOJvjZdRJj3k-42" target="RUQEUfg2NOJvjZdRJj3k-26" edge="1">
          <mxGeometry x="-0.0692" relative="1" as="geometry">
            <mxPoint as="offset" />
          </mxGeometry>
        </mxCell>
        <mxCell id="RUQEUfg2NOJvjZdRJj3k-42" value="" style="rounded=0;whiteSpace=wrap;html=1;" parent="1" vertex="1">
          <mxGeometry x="640" y="-20" width="300" height="180" as="geometry" />
        </mxCell>
        <mxCell id="RUQEUfg2NOJvjZdRJj3k-27" value="被贪婪攻击" style="edgeStyle=orthogonalEdgeStyle;rounded=0;orthogonalLoop=1;jettySize=auto;html=1;exitX=0;exitY=0.5;exitDx=0;exitDy=0;entryX=1;entryY=0.5;entryDx=0;entryDy=0;" parent="1" source="RUQEUfg2NOJvjZdRJj3k-26" target="RUQEUfg2NOJvjZdRJj3k-25" edge="1">
          <mxGeometry relative="1" as="geometry" />
        </mxCell>
        <mxCell id="RUQEUfg2NOJvjZdRJj3k-44" value="捡起锤子" style="edgeStyle=orthogonalEdgeStyle;rounded=0;orthogonalLoop=1;jettySize=auto;html=1;exitX=0.25;exitY=0;exitDx=0;exitDy=0;entryX=0.25;entryY=1;entryDx=0;entryDy=0;" parent="1" source="RUQEUfg2NOJvjZdRJj3k-26" target="RUQEUfg2NOJvjZdRJj3k-42" edge="1">
          <mxGeometry relative="1" as="geometry" />
        </mxCell>
        <mxCell id="RUQEUfg2NOJvjZdRJj3k-26" value="" style="rounded=0;whiteSpace=wrap;html=1;movable=1;resizable=1;rotatable=1;deletable=1;editable=1;locked=0;connectable=1;container=1;" parent="1" vertex="1">
          <mxGeometry x="635" y="200" width="310" height="210" as="geometry">
            <mxRectangle x="635" y="200" width="50" height="40" as="alternateBounds" />
          </mxGeometry>
        </mxCell>
        <mxCell id="RUQEUfg2NOJvjZdRJj3k-47" value="捡起弓" style="edgeStyle=orthogonalEdgeStyle;rounded=0;orthogonalLoop=1;jettySize=auto;html=1;exitX=0.25;exitY=1;exitDx=0;exitDy=0;entryX=0.25;entryY=0;entryDx=0;entryDy=0;" parent="RUQEUfg2NOJvjZdRJj3k-26" edge="1">
          <mxGeometry relative="1" as="geometry">
            <mxPoint x="67.5" y="170.00000000000023" as="sourcePoint" />
            <mxPoint x="72.5" y="200.00000000000023" as="targetPoint" />
          </mxGeometry>
        </mxCell>
        <mxCell id="RUQEUfg2NOJvjZdRJj3k-34" value="" style="edgeStyle=orthogonalEdgeStyle;rounded=0;orthogonalLoop=1;jettySize=auto;html=1;" parent="RUQEUfg2NOJvjZdRJj3k-26" edge="1">
          <mxGeometry relative="1" as="geometry">
            <mxPoint x="25" y="70" as="sourcePoint" />
            <mxPoint x="25" y="130" as="targetPoint" />
            <Array as="points">
              <mxPoint x="25" y="110" />
              <mxPoint x="25" y="110" />
            </Array>
          </mxGeometry>
        </mxCell>
        <mxCell id="RUQEUfg2NOJvjZdRJj3k-35" value="2s" style="edgeLabel;html=1;align=center;verticalAlign=middle;resizable=0;points=[];" parent="RUQEUfg2NOJvjZdRJj3k-34" vertex="1" connectable="0">
          <mxGeometry x="-0.1167" y="-2" relative="1" as="geometry">
            <mxPoint as="offset" />
          </mxGeometry>
        </mxCell>
        <mxCell id="RUQEUfg2NOJvjZdRJj3k-36" value="站立" style="whiteSpace=wrap;html=1;rounded=0;" parent="RUQEUfg2NOJvjZdRJj3k-26" vertex="1">
          <mxGeometry x="15" y="50" width="60" height="20" as="geometry" />
        </mxCell>
        <mxCell id="RUQEUfg2NOJvjZdRJj3k-37" style="edgeStyle=orthogonalEdgeStyle;rounded=0;orthogonalLoop=1;jettySize=auto;html=1;exitX=0.75;exitY=0;exitDx=0;exitDy=0;entryX=0.75;entryY=1;entryDx=0;entryDy=0;" parent="RUQEUfg2NOJvjZdRJj3k-26" source="RUQEUfg2NOJvjZdRJj3k-39" target="RUQEUfg2NOJvjZdRJj3k-36" edge="1">
          <mxGeometry relative="1" as="geometry" />
        </mxCell>
        <mxCell id="RUQEUfg2NOJvjZdRJj3k-38" value="2s" style="edgeLabel;html=1;align=center;verticalAlign=middle;resizable=0;points=[];" parent="RUQEUfg2NOJvjZdRJj3k-37" vertex="1" connectable="0">
          <mxGeometry x="-0.0889" y="-2" relative="1" as="geometry">
            <mxPoint as="offset" />
          </mxGeometry>
        </mxCell>
        <mxCell id="RUQEUfg2NOJvjZdRJj3k-39" value="走动" style="whiteSpace=wrap;html=1;rounded=0;" parent="RUQEUfg2NOJvjZdRJj3k-26" vertex="1">
          <mxGeometry x="15" y="130" width="60" height="20" as="geometry" />
        </mxCell>
        <mxCell id="RUQEUfg2NOJvjZdRJj3k-40" value="走动" style="whiteSpace=wrap;html=1;rounded=0;" parent="RUQEUfg2NOJvjZdRJj3k-26" vertex="1">
          <mxGeometry x="15" y="130" width="60" height="20" as="geometry" />
        </mxCell>
        <mxCell id="RUQEUfg2NOJvjZdRJj3k-30" value="发现工具" style="edgeStyle=orthogonalEdgeStyle;rounded=0;orthogonalLoop=1;jettySize=auto;html=1;exitX=1;exitY=0.5;exitDx=0;exitDy=0;" parent="RUQEUfg2NOJvjZdRJj3k-26" source="RUQEUfg2NOJvjZdRJj3k-36" edge="1">
          <mxGeometry relative="1" as="geometry">
            <mxPoint x="74.99999999999977" y="60" as="sourcePoint" />
            <mxPoint x="155" y="60" as="targetPoint" />
          </mxGeometry>
        </mxCell>
        <mxCell id="RUQEUfg2NOJvjZdRJj3k-29" value="跑向工具" style="rounded=0;whiteSpace=wrap;html=1;" parent="RUQEUfg2NOJvjZdRJj3k-26" vertex="1">
          <mxGeometry x="155" y="50" width="60" height="20" as="geometry" />
        </mxCell>
        <mxCell id="RUQEUfg2NOJvjZdRJj3k-25" value="" style="rounded=0;whiteSpace=wrap;html=1;" parent="1" vertex="1">
          <mxGeometry x="260" y="190" width="280" height="210" as="geometry" />
        </mxCell>
        <mxCell id="RUQEUfg2NOJvjZdRJj3k-9" value="" style="edgeStyle=orthogonalEdgeStyle;rounded=0;orthogonalLoop=1;jettySize=auto;html=1;" parent="1" source="RUQEUfg2NOJvjZdRJj3k-1" target="RUQEUfg2NOJvjZdRJj3k-8" edge="1">
          <mxGeometry relative="1" as="geometry" />
        </mxCell>
        <mxCell id="RUQEUfg2NOJvjZdRJj3k-11" value="发现硬币" style="edgeLabel;html=1;align=center;verticalAlign=middle;resizable=0;points=[];" parent="RUQEUfg2NOJvjZdRJj3k-9" vertex="1" connectable="0">
          <mxGeometry x="0.2167" y="-1" relative="1" as="geometry">
            <mxPoint x="-9" y="-1" as="offset" />
          </mxGeometry>
        </mxCell>
        <mxCell id="RUQEUfg2NOJvjZdRJj3k-16" value="" style="edgeStyle=orthogonalEdgeStyle;rounded=0;orthogonalLoop=1;jettySize=auto;html=1;" parent="1" source="RUQEUfg2NOJvjZdRJj3k-1" target="RUQEUfg2NOJvjZdRJj3k-15" edge="1">
          <mxGeometry relative="1" as="geometry" />
        </mxCell>
        <mxCell id="RUQEUfg2NOJvjZdRJj3k-1" value="闲逛" style="rounded=0;whiteSpace=wrap;html=1;" parent="1" vertex="1">
          <mxGeometry x="300" y="220" width="60" height="20" as="geometry" />
        </mxCell>
        <mxCell id="RUQEUfg2NOJvjZdRJj3k-13" value="" style="edgeStyle=orthogonalEdgeStyle;rounded=0;orthogonalLoop=1;jettySize=auto;html=1;entryX=0;entryY=0.25;entryDx=0;entryDy=0;exitX=1;exitY=0.25;exitDx=0;exitDy=0;" parent="1" source="RUQEUfg2NOJvjZdRJj3k-25" target="RUQEUfg2NOJvjZdRJj3k-26" edge="1">
          <mxGeometry relative="1" as="geometry">
            <mxPoint x="600" y="231" as="sourcePoint" />
            <mxPoint x="569" y="230" as="targetPoint" />
          </mxGeometry>
        </mxCell>
        <mxCell id="RUQEUfg2NOJvjZdRJj3k-14" value="捡起1枚硬币" style="edgeLabel;html=1;align=center;verticalAlign=middle;resizable=0;points=[];" parent="RUQEUfg2NOJvjZdRJj3k-13" vertex="1" connectable="0">
          <mxGeometry x="-0.1185" y="2" relative="1" as="geometry">
            <mxPoint x="5" as="offset" />
          </mxGeometry>
        </mxCell>
        <mxCell id="RUQEUfg2NOJvjZdRJj3k-8" value="跑向硬币" style="rounded=0;whiteSpace=wrap;html=1;" parent="1" vertex="1">
          <mxGeometry x="440" y="220" width="60" height="20" as="geometry" />
        </mxCell>
        <mxCell id="RUQEUfg2NOJvjZdRJj3k-18" value="" style="edgeStyle=orthogonalEdgeStyle;rounded=0;orthogonalLoop=1;jettySize=auto;html=1;" parent="1" edge="1">
          <mxGeometry relative="1" as="geometry">
            <mxPoint x="310" y="300" as="sourcePoint" />
            <mxPoint x="310" y="360" as="targetPoint" />
            <Array as="points">
              <mxPoint x="310" y="340" />
              <mxPoint x="310" y="340" />
            </Array>
          </mxGeometry>
        </mxCell>
        <mxCell id="RUQEUfg2NOJvjZdRJj3k-21" value="2s" style="edgeLabel;html=1;align=center;verticalAlign=middle;resizable=0;points=[];" parent="RUQEUfg2NOJvjZdRJj3k-18" vertex="1" connectable="0">
          <mxGeometry x="-0.1167" y="-2" relative="1" as="geometry">
            <mxPoint as="offset" />
          </mxGeometry>
        </mxCell>
        <mxCell id="RUQEUfg2NOJvjZdRJj3k-15" value="站立" style="whiteSpace=wrap;html=1;rounded=0;" parent="1" vertex="1">
          <mxGeometry x="300" y="280" width="60" height="20" as="geometry" />
        </mxCell>
        <mxCell id="RUQEUfg2NOJvjZdRJj3k-22" style="edgeStyle=orthogonalEdgeStyle;rounded=0;orthogonalLoop=1;jettySize=auto;html=1;exitX=0.75;exitY=0;exitDx=0;exitDy=0;entryX=0.75;entryY=1;entryDx=0;entryDy=0;" parent="1" source="RUQEUfg2NOJvjZdRJj3k-17" target="RUQEUfg2NOJvjZdRJj3k-15" edge="1">
          <mxGeometry relative="1" as="geometry" />
        </mxCell>
        <mxCell id="RUQEUfg2NOJvjZdRJj3k-23" value="2s" style="edgeLabel;html=1;align=center;verticalAlign=middle;resizable=0;points=[];" parent="RUQEUfg2NOJvjZdRJj3k-22" vertex="1" connectable="0">
          <mxGeometry x="-0.0889" y="-2" relative="1" as="geometry">
            <mxPoint as="offset" />
          </mxGeometry>
        </mxCell>
        <mxCell id="RUQEUfg2NOJvjZdRJj3k-17" value="走动" style="whiteSpace=wrap;html=1;rounded=0;" parent="1" vertex="1">
          <mxGeometry x="300" y="360" width="60" height="20" as="geometry" />
        </mxCell>
        <mxCell id="RUQEUfg2NOJvjZdRJj3k-31" value="走动" style="whiteSpace=wrap;html=1;rounded=0;" parent="1" vertex="1">
          <mxGeometry x="300" y="360" width="60" height="20" as="geometry" />
        </mxCell>
        <mxCell id="RUQEUfg2NOJvjZdRJj3k-49" value="" style="rounded=0;whiteSpace=wrap;html=1;" parent="1" vertex="1">
          <mxGeometry x="1121" y="500" width="120" height="60" as="geometry" />
        </mxCell>
        <mxCell id="RUQEUfg2NOJvjZdRJj3k-50" value="弹弓手" style="text;html=1;strokeColor=none;fillColor=none;align=center;verticalAlign=middle;whiteSpace=wrap;rounded=0;" parent="1" vertex="1">
          <mxGeometry x="880" y="541" width="60" height="30" as="geometry" />
        </mxCell>
        <mxCell id="RUQEUfg2NOJvjZdRJj3k-51" value="流浪小孩" style="text;html=1;strokeColor=none;fillColor=none;align=center;verticalAlign=middle;whiteSpace=wrap;rounded=0;" parent="1" vertex="1">
          <mxGeometry x="430" y="330" width="60" height="30" as="geometry" />
        </mxCell>
        <mxCell id="RUQEUfg2NOJvjZdRJj3k-52" value="待业小孩" style="text;html=1;strokeColor=none;fillColor=none;align=center;verticalAlign=middle;whiteSpace=wrap;rounded=0;" parent="1" vertex="1">
          <mxGeometry x="840" y="335" width="60" height="30" as="geometry" />
        </mxCell>
        <mxCell id="RUQEUfg2NOJvjZdRJj3k-53" value="工人" style="text;html=1;strokeColor=none;fillColor=none;align=center;verticalAlign=middle;whiteSpace=wrap;rounded=0;" parent="1" vertex="1">
          <mxGeometry x="850" y="90" width="60" height="30" as="geometry" />
        </mxCell>
        <mxCell id="RUQEUfg2NOJvjZdRJj3k-54" value="战士" style="text;html=1;strokeColor=none;fillColor=none;align=center;verticalAlign=middle;whiteSpace=wrap;rounded=0;" parent="1" vertex="1">
          <mxGeometry x="1090" y="290" width="60" height="30" as="geometry" />
        </mxCell>
      </root>
    </mxGraphModel>
  </diagram>
</mxfile>
